<svg height='100px' width='100px'  fill="#ffffff" xmlns="http://www.w3.org/2000/svg" xmlns:xlink="http://www.w3.org/1999/xlink" viewBox="0 0 24 24" version="1.1" x="0px" y="0px"><title>download</title><desc>Created with Sketch.</desc><g stroke="none" stroke-width="1" fill="none" fill-rule="evenodd"><path d="M5.66666667,15 C5.85076158,15 6,15.1492384 6,15.3333333 L6,17 L18,17 L18,15.3333333 C18,15.1492384 18.1492384,15 18.3333333,15 L19.6666667,15 C19.8507616,15 20,15.1492384 20,15.3333333 L20,18.6666667 C20,18.8507616 19.8507616,19 19.6666667,19 L4.33333333,19 C4.14923842,19 4,18.8507616 4,18.6666667 L4,15.3333333 C4,15.1492384 4.14923842,15 4.33333333,15 L5.66666667,15 Z M12.6624314,5.00050444 C12.8465263,5.00050444 12.9957647,5.14974286 12.9957647,5.33383777 L12.9958583,10.9783378 L14.8513946,9.0849867 C14.9734647,8.96042243 15.169303,8.95195086 15.3013767,9.06096287 L15.3275421,9.0849867 L15.3275421,9.0849867 L16.404432,10.1838804 C16.5314448,10.3134884 16.5314448,10.5208858 16.404432,10.6504937 L12.2403449,14.8996648 C12.1793099,14.9619469 12.0998327,14.9952059 12.0191052,14.9992678 L12.0137501,14.9992678 C11.9240528,15.0037811 11.8328118,14.9722486 11.7636094,14.9044319 L7.59475513,10.6504937 C7.46774237,10.5208858 7.46774237,10.3134884 7.59475513,10.1838804 L8.671645,9.0849867 C8.80049671,8.95350219 9.01154091,8.95136788 9.14302542,9.08021959 L11.0035249,10.9781711 L11.0034224,5.33383777 C11.0034224,5.14974286 11.1526608,5.00050444 11.3367557,5.00050444 L12.6624314,5.00050444 Z" fill="#ffffff"></path></g></svg>