<svg height='100px' width='100px'  fill="#15803D" xmlns="http://www.w3.org/2000/svg" data-name="Layer 1" viewBox="0 0 100 100" x="0px" y="0px"><title>A__16</title><path d="M93.43341,93.0332A1.22527,1.22527,0,0,0,95,91.85132V21.48608a1.22717,1.22717,0,0,0-.88049-1.17877c-1.65058-.48419-5.47419-1.55951-10.191-2.58612V79.1795a3.82465,3.82465,0,0,1-3.52558,3.83777c-6.34521.52887-16.38531,2.57373-21.991,7.04566C69.733,86.63885,88.00647,91.44745,93.43341,93.0332Z"></path><path d="M80.74792,79.17932V7.58887a.66845.66845,0,0,0-.72412-.66944c-4.149.35694-24.84472,2.713-28.42822,14.40692V89.84442a1.07475,1.07475,0,0,0,1.92377.66388c6.37506-8.5581,23.20752-10.37628,26.62-10.66077A.66472.66472,0,0,0,80.74792,79.17932Z"></path><path d="M6.56659,93.0332c5.42694-1.58575,23.70044-6.39435,35.02148-2.97027-5.60565-4.47193-15.64575-6.51679-21.991-7.04566a3.82465,3.82465,0,0,1-3.52558-3.83777V17.72119c-4.71685,1.02661-8.54046,2.10193-10.191,2.58612A1.22717,1.22717,0,0,0,5,21.48608V91.85132A1.22527,1.22527,0,0,0,6.56659,93.0332Z"></path><path d="M19.25208,7.58887V79.17932a.66472.66472,0,0,0,.60858.66821c3.41247.28449,20.24493,2.10267,26.62,10.66077a1.07475,1.07475,0,0,0,1.92377-.66388V21.32635c-3.5835-11.6939-24.27924-14.05-28.42822-14.40692A.66845.66845,0,0,0,19.25208,7.58887Z"></path></svg>